<?xml version="1.0" encoding="UTF-8"?>
<svg width="512px" height="512px" enable-background="new 0 0 490.667 490.667" version="1.1" viewBox="0 0 490.67 490.67" xml:space="preserve" xmlns="http://www.w3.org/2000/svg">
		<path d="m245.33 0c-135.27 0-245.33 110.06-245.33 245.33s110.06 245.33 245.33 245.33 245.33-110.06 245.33-245.33-110.06-245.33-245.33-245.33zm0 469.33c-123.52 0-224-100.48-224-224s100.48-224 224-224 224 100.48 224 224-100.48 224-224 224z" fill="#434343"/>
		<path d="m391.53 163.14c-4.16-4.16-10.923-4.16-15.083 0l-163.12 163.12-99.136-99.115c-4.16-4.16-10.923-4.16-15.083 0s-4.16 10.923 0 15.083l106.67 106.67c2.091 2.069 4.821 3.115 7.552 3.115s5.461-1.045 7.531-3.115l170.67-170.67c4.16-4.16 4.16-10.923 0-15.083z" fill="#434343"/>
</svg>
