<?xml version="1.0" encoding="UTF-8"?>
<!DOCTYPE svg  PUBLIC '-//W3C//DTD SVG 1.1//EN'  'http://www.w3.org/Graphics/SVG/1.1/DTD/svg11.dtd'>
<svg enable-background="new 0 0 611.994 611.994" version="1.1" viewBox="0 0 611.99 611.99" xml:space="preserve" xmlns="http://www.w3.org/2000/svg">
			<path d="m306.03 611.99v-14.703l-0.023 14.703c-168.72 0-306-137.27-306.01-306 0-168.72 137.27-306 306-306s306 137.27 306 306c6e-3 168.72-137.25 306-305.96 306zm-0.035-582.59c-152.51 0-276.59 124.08-276.59 276.59 0.012 152.51 124.1 276.59 276.6 276.59h0.023c152.5 0 276.56-124.08 276.56-276.59 6e-3 -152.51-124.07-276.59-276.59-276.59z" fill="#434343"/>
				<path d="m306.01 481.3c-55.595 0-100.83-42.621-100.83-95.004 0-8.122 6.581-14.703 14.703-14.703s14.703 6.581 14.703 14.703c0 36.169 32.041 65.6 71.427 65.6s71.415-29.431 71.415-65.6c0-36.17-32.035-65.599-71.415-65.599-55.595 0-100.83-42.621-100.83-95.004 0-52.384 45.238-95.004 100.83-95.004 29.854 0 57.988 12.351 77.196 33.887 5.404 6.063 4.869 15.355-1.188 20.76-6.058 5.411-15.354 4.87-20.76-1.188-13.627-15.285-33.764-24.054-55.248-24.054-39.38 0-71.427 29.423-71.427 65.599 0 36.169 32.041 65.598 71.427 65.598 55.596 0 100.82 42.621 100.82 95.005 6e-3 52.383-45.226 95.004-100.82 95.004z" fill="#434343"/>
				<path d="m303.32 525.24c-8.122 0-14.703-6.581-14.703-14.703v-409.07c0-8.122 6.581-14.703 14.703-14.703 8.123 0 14.703 6.581 14.703 14.703v409.07c1e-3 8.122-6.58 14.703-14.703 14.703z" fill="#434343"/>
</svg>
