<?xml version="1.0" encoding="UTF-8"?>
<svg width="512px" height="512px" enable-background="new 0 0 441.658 441.658" version="1.1" viewBox="0 0 441.66 441.66" xml:space="preserve" xmlns="http://www.w3.org/2000/svg">
	<g fill="#434343">
		<path d="m298.37 202.19c3.186-3.178 3.186-8.307 0-11.494l-71.8-71.792c-0.748-0.764-1.65-1.341-2.626-1.764-1-0.415-2.057-0.626-3.121-0.626s-2.113 0.211-3.113 0.626c-0.984 0.423-1.878 1-2.634 1.764l-71.808 71.792c-3.17 3.186-3.17 8.332 0 11.494 3.186 3.186 8.316 3.186 11.494 0l57.932-57.932v289.27c0 4.495 3.633 8.129 8.129 8.129 4.503 0 8.129-3.633 8.129-8.129v-289.27l57.924 57.932c3.179 3.178 8.316 3.178 11.494 0z"/>
		<path d="m55.543 346.83h85.342c4.495 0 8.129-3.633 8.129-8.129 0-4.487-3.633-8.129-8.129-8.129h-77.214v-314.32h314.32v314.32h-79.619c-4.487 0-8.129 3.642-8.129 8.129 0 4.495 3.642 8.129 8.129 8.129h87.748c4.495 0 8.129-3.633 8.129-8.129v-330.57c0-4.495-3.633-8.129-8.129-8.129h-330.57c-4.495 0-8.129 3.633-8.129 8.129v330.57c0 4.486 3.633 8.128 8.129 8.128z"/>
	</g>
</svg>
