<?xml version="1.0" encoding="UTF-8"?>
<!DOCTYPE svg  PUBLIC '-//W3C//DTD SVG 1.0//EN'  'http://www.w3.org/TR/2001/REC-SVG-20010904/DTD/svg10.dtd'>
<svg enable-background="new 0 0 74.089 99.818" version="1.0" viewBox="0 0 74.089 99.818" xml:space="preserve" xmlns="http://www.w3.org/2000/svg">
<path d="m21.547 0.091s-21.827 0.287-21.544 20.059c0.284 19.773 4.253 37.255 10.773 46.998 6.519 9.744 23.242 35.248 42.236 32.67 0 0 9.355-2.007 16.44-6.593l-22.96-18.054s-6.803 4.299-11.055-1.433c-4.253-5.73-17.575-32.381-17.575-32.381s-3.685-8.598 4.536-12.323l-0.851-28.943z" fill="#fff"/>
<path d="m24.099 0.091s1.701-0.571 4.818 1.147c3.118 1.719 3.118 3.15 3.118 3.15l0.284 19.775s-0.851 1.147-1.984 2.291c-1.134 1.146-4.819 2.867-5.387 1.72-0.565-1.145-0.849-28.083-0.849-28.083z" fill="#fff"/>
<path d="m48.401 73.058 6.312-3.332s1.417-0.285 3.684 1.146c2.268 1.436 14.174 10.893 14.174 10.893s1.984 1.719 1.417 3.725c-0.566 2.006-1.984 6.305-1.984 6.305l-23.603-18.737z" fill="#fff"/>
</svg>
