<?xml version="1.0" encoding="UTF-8"?>
<svg viewBox="0 0 160 44" xmlns="http://www.w3.org/2000/svg">
<defs>
<linearGradient id="a" x1="50%" x2="50%" y2="99.484%">
<stop stop-color="#41F9E1" offset="0"/>
<stop stop-color="#0097FF" offset="1"/>
</linearGradient>
</defs>
<g fill-rule="evenodd">
<path d="M20.414 1C9.139 1 0 10.18 0 21.5 0 32.823 9.139 42 20.414 42c11.274 0 20.414-9.177 20.414-20.5 0-11.32-9.14-20.5-20.414-20.5z" fill="#FFF"/>
<path transform="translate(0 1)" d="M20.414 0c11.274 0 20.414 9.18 20.414 20.5 0 11.323-9.14 20.5-20.414 20.5C9.139 41 0 31.823 0 20.5 0 9.18 9.139 0 20.414 0zm4.414 14.405v7.757h6.62v-7.757a3.317 3.317 0 0 0-3.31-3.324 3.317 3.317 0 0 0-3.31 3.324zm-15.449 0v7.757H16v-7.757a3.317 3.317 0 0 0-3.31-3.324 3.317 3.317 0 0 0-3.31 3.324zm0 7.757c0 6.12 4.94 11.081 11.035 11.081 6.094 0 11.034-4.96 11.034-11.08h-6.62c0 2.447-1.977 4.432-4.414 4.432-2.438 0-4.414-1.985-4.414-4.433H9.38z" fill="url(#a)"/>
<g fill="#004460">
<path d="M103.19 21.25a7.855 7.855 0 0 1-.619 3.107c-.42.974-1 1.835-1.724 2.566a8.097 8.097 0 0 1-2.574 1.729c-1.948.828-4.311.831-6.221.003a8.129 8.129 0 0 1-2.554-1.732 8.197 8.197 0 0 1-1.724-2.569c-.411-.956-.62-2-.62-3.103 0-1.105.209-2.162.625-3.14a8.1 8.1 0 0 1 1.719-2.586 8.188 8.188 0 0 1 2.557-1.732 7.73 7.73 0 0 1 3.092-.622c1.1 0 2.15.21 3.126.625a8.093 8.093 0 0 1 2.571 1.726 8.136 8.136 0 0 1 2.346 5.729m2.253-10.34a15.41 15.41 0 0 0-4.605-3.175 13.547 13.547 0 0 0-5.585-1.195l-.055.002c-2.066.079-4.015.517-5.79 1.298-1.771.78-3.335 1.84-4.642 3.152a14.512 14.512 0 0 0-3.09 4.624c-.746 1.759-1.124 3.674-1.124 5.689 0 2.092.387 4.055 1.153 5.834a14.26 14.26 0 0 0 3.157 4.63 14.675 14.675 0 0 0 4.63 3.038c1.752.729 3.654 1.097 5.654 1.097 2.047 0 3.98-.389 5.753-1.16a14.507 14.507 0 0 0 4.633-3.161 15.32 15.32 0 0 0 3.105-4.63 14.082 14.082 0 0 0 1.156-5.648c0-2.018-.399-3.948-1.188-5.742a15.359 15.359 0 0 0-3.162-4.652M116.414 9.918c0-1.865 1.482-3.377 3.31-3.377s3.31 1.512 3.31 3.377v23.164c0 1.865-1.482 3.377-3.31 3.377s-3.31-1.512-3.31-3.377V9.918zM159.988 21.017c-.254-8.038-6.818-14.476-14.885-14.476-8.065 0-14.63 6.438-14.884 14.476l-.012 12.065a3.37 3.37 0 0 0 3.364 3.377 3.37 3.37 0 0 0 3.363-3.377V21.5c0-4.53 3.658-8.204 8.17-8.204 4.511 0 8.169 3.673 8.169 8.204v11.582a3.37 3.37 0 0 0 3.363 3.377A3.37 3.37 0 0 0 160 33.082l-.012-12.065zM71.58 27.2c-.703 0-1.378.216-1.953.624l-.103.08c-1.444 1.192-3.095 1.772-5.046 1.772-2.257 0-4.13-.784-5.728-2.396-1.596-1.61-2.372-3.502-2.372-5.78 0-2.279.776-4.17 2.373-5.78 1.597-1.612 3.47-2.396 5.727-2.396 1.907 0 3.508.539 4.892 1.646a3.289 3.289 0 0 0 2.305.925c.91 0 1.73-.344 2.373-.994.646-.65.986-1.48.986-2.398 0-.9-.337-1.732-.975-2.404l-.153-.14C71.167 7.69 67.995 6.54 64.478 6.54c-4.068 0-7.595 1.475-10.48 4.384-2.882 2.91-4.343 6.468-4.343 10.575 0 4.107 1.462 7.665 4.344 10.574 2.883 2.91 6.409 4.385 10.48 4.385 3.443 0 6.585-1.125 9.341-3.347l.141-.13c.64-.644.978-1.47.978-2.389 0-.917-.34-1.747-.987-2.4a3.284 3.284 0 0 0-2.373-.992"/>
</g>
</g>
</svg>
